M48
;DRILL file {KiCad 4.0.7} date Wednesday, 11. April 2018 'u57' 14:57:06
;FORMAT={-:-/ absolute / metric / decimal}
FMAT,2
METRIC,TZ
T1C0.400
T2C0.800
T3C0.998
T4C1.001
T5C1.016
T6C1.143
%
G90
G05
M71
T1
X154.94Y-125.73
X161.29Y-71.12
X163.83Y-72.39
X163.83Y-109.22
X164.095Y-113.295
X180.34Y-68.58
X181.935Y-72.065
X189.23Y-105.41
X198.12Y-108.585
T2
X154.98Y-134.62
X154.98Y-142.24
X157.48Y-134.62
X157.48Y-142.24
T3
X143.51Y-154.94
X146.05Y-154.94
X148.59Y-154.94
X151.13Y-154.94
X195.58Y-154.94
X198.12Y-154.94
X200.66Y-154.94
T4
X165.1Y-134.62
X165.1Y-144.78
X170.18Y-134.62
X170.18Y-144.78
X180.34Y-124.46
X180.34Y-142.24
X190.5Y-124.46
X190.5Y-142.24
X205.74Y-137.16
X205.74Y-142.24
X205.74Y-147.32
X215.9Y-137.16
X215.9Y-142.24
X215.9Y-147.32
T5
X154.94Y-85.09
X154.94Y-87.63
X157.48Y-85.09
X157.48Y-87.63
X160.02Y-85.09
X160.02Y-87.63
X162.56Y-85.09
X162.56Y-87.63
X165.1Y-85.09
X165.1Y-87.63
X167.64Y-85.09
X167.64Y-87.63
X170.18Y-85.09
X170.18Y-87.63
X172.72Y-85.09
X172.72Y-87.63
X175.26Y-85.09
X175.26Y-87.63
X177.8Y-85.09
X177.8Y-87.63
X180.34Y-85.09
X180.34Y-87.63
X182.88Y-85.09
X182.88Y-87.63
X185.42Y-85.09
X185.42Y-87.63
X187.96Y-85.09
X187.96Y-87.63
X190.5Y-85.09
X190.5Y-87.63
X193.04Y-85.09
X193.04Y-87.63
X195.58Y-85.09
X195.58Y-87.63
T6
X160.02Y-149.86
X162.56Y-149.86
X165.1Y-149.86
T0
M30
